{"title":"Paranormal-Activity.2009.DvdScr.IMAGiNE","uid":5135297,"size":1374943992,"categoryP":"video","categoryS":"movies","magnet":"?xt=urn:btih:d800f9dfe595fd31658d52a8df10a37a6481143a&amp;dn=Paranormal-Activity.2009.DvdScr.IMAGiNE&amp;tr=udp%3A%2F%2Ftracker.openbittorrent.com%3A80&amp;tr=udp%3A%2F%2Fopen.demonii.com%3A1337&amp;tr=udp%3A%2F%2Ftracker.coppersurfer.tk%3A6969&amp;tr=udp%3A%2F%2Fexodus.desync.com%3A6969","seeders":0,"leechers":0,"uploader":"careidunt","files":4,"time":1256427355,"description":"Paranormal Activity DVDSCR XVID-IMAGiNE\nORIGINAL PAGE :\nFormat: AVI\nFormat/Info: Audio Video Interleave\nFile size: 1.34 GiB\nDuration: 1h 37mn\nOverall bit rate: 1 701 Kbps\nWriting library: VirtualDub build 30091/release\n\nVideo\nID: 0\nFormat: MPEG-4 Visual\nFormat profile: AdvancedSimple[@]L5\nFormat settings, BVOP: No\nFormat settings, QPel: No\nFormat settings, GMC: No warppoints\nFormat settings, Matrix: Default (MPEG)\nCodec ID: XVID\nCodec ID/Hint: XviD\nDuration: 1h 37mn\nBit rate: 1 497 Kbps\nWidth: 852 pixels\nHeight: 480 pixels\nDisplay aspect ratio: 16:9\nFrame rate: 29.970 fps\nResolution: 24 bits\nColorimetry: 4:2:0\nScan type: Progressive\nBits/(Pixel*Frame): 0.122\nStream size: 1.02 GiB (88%)\nWriting library: XviD 1.1.2 (UTC 2006-11-01)\n\nAudio\nID: 1\nFormat: MPEG Audio\nFormat version: Version 1\nFormat profile: Layer 3\nCodec ID: 55\nCodec ID/Hint: MP3\nDuration: 1h 37mn\nBit rate mode: Constant\nBit rate: 192 Kbps\nChannel(s): 2 channels\nSampling rate: 44.1 KHz\nResolution: 16 bits\nVideo delay: 21ms\nStream size: 133 MiB (11%)\nAlignment: Split accross interleaves\nInterleave, duration: 33 ms (1.00 video frame)\nInterleave, preload duration: 500 ms\n\n\n\nDirector: Oren Peli\n\n\nWriter: Oren Peli (screenplay)\n &lt;a href=&quot;\nhttp://www.imdb.com/title/tt1179904/&quot; rel=&quot;nofollow&quot; target=&quot;_NEW&quot;&gt;\nhttp://www.imdb.com/title/tt1179904/&lt;/a&gt;\n\nGenre:Horror | Thriller more\n\n\nTagline:Don't See It Alone more\n\n\nPlot:\nAfter moving into a suburban home, a couple becomes increasingly disturbed by a nightly demonic presence.\n\n\n\n\n","torrent":{"xt":"urn:btih:d800f9dfe595fd31658d52a8df10a37a6481143a","amp;dn":"Paranormal-Activity.2009.DvdScr.IMAGiNE","amp;tr":["udp%3A%2F%2Ftracker.openbittorrent.com%3A80","udp%3A%2F%2Fopen.demonii.com%3A1337","udp%3A%2F%2Ftracker.coppersurfer.tk%3A6969","udp%3A%2F%2Fexodus.desync.com%3A6969"],"infoHash":"d800f9dfe595fd31658d52a8df10a37a6481143a","infoHashBuffer":{"type":"Buffer","data":[216,0,249,223,229,149,253,49,101,141,82,168,223,16,163,122,100,129,20,58]},"announce":[],"urlList":[]}}